<svg width="49" height="49" viewBox="0 0 49 49" fill="none" xmlns="http://www.w3.org/2000/svg">
<path d="M20.2834 9.91089C20.9111 9.91089 21.5299 9.93779 22.1397 9.9916C22.8384 9.89859 23.5424 9.85066 24.2472 9.84811H26.3816C26.9796 9.87504 27.5768 9.78051 28.1372 9.57025C28.6976 9.35999 29.2096 9.03835 29.6423 8.62474C30.0749 8.21114 30.4193 7.71415 30.6545 7.16379C30.8898 6.61342 31.0111 6.02109 31.0111 5.42255C31.0111 4.82401 30.8898 4.23167 30.6545 3.68131C30.4193 3.13094 30.0749 2.63395 29.6423 2.22035C29.2096 1.80675 28.6976 1.4851 28.1372 1.27484C27.5768 1.06458 26.9796 0.970054 26.3816 0.996977H24.2472C21.1271 1.00351 18.0398 1.6345 15.1673 2.85275C12.2949 4.07101 9.69532 5.85189 7.52187 8.09044C3.00703 12.6423 0.481762 18.7988 0.499914 25.2098C0.502719 26.0786 0.550613 26.9466 0.643402 27.8105C1.09917 22.9167 3.36522 18.3693 6.9979 15.0585C10.6306 11.7477 15.3683 9.91205 20.2834 9.91089Z" fill="#5E6AD2"/>
<path d="M48.4968 24.7793V22.7616V22.7168C48.4968 21.5276 48.0244 20.3871 47.1834 19.5462C46.3425 18.7053 45.202 18.2329 44.0128 18.2329C42.8235 18.2329 41.683 18.7053 40.8421 19.5462C40.0012 20.3871 39.5288 21.5276 39.5288 22.7168V24.8511C39.5288 25.0753 39.5288 25.2905 39.5288 25.5147C39.8135 26.8683 39.9578 28.2477 39.9592 29.6309C39.963 34.1937 38.3851 38.6168 35.4941 42.147C32.6032 45.6772 28.5779 48.0962 24.1038 48.9922H24.2472C27.487 49.0085 30.6972 48.3758 33.6884 47.1313C36.6796 45.8868 39.3912 44.0558 41.6631 41.7463C43.8767 39.5172 45.6217 36.8676 46.7954 33.9537C47.969 31.0397 48.5475 27.9203 48.4968 24.7793Z" fill="#5E6AD2"/>
<path d="M40.013 29.6309C40.0115 28.2477 39.8673 26.8684 39.5825 25.5148C39.4901 29.241 37.9794 32.7915 35.3586 35.442C33.9046 36.9106 32.1741 38.0764 30.2669 38.8722C28.3597 39.668 26.3138 40.0779 24.2472 40.0783C22.2877 40.0987 20.3437 39.7282 18.5291 38.9885C16.7144 38.2488 15.0654 37.1548 13.6785 35.7704C12.2915 34.3861 11.1945 32.7391 10.4515 30.9258C9.70855 29.1126 9.33453 27.1694 9.35132 25.2099C9.29764 21.1261 10.8612 17.1868 13.7008 14.2513C15.9576 11.9222 18.9277 10.4135 22.1397 9.96474C21.5418 9.91094 20.9231 9.88403 20.2833 9.88403C15.3682 9.8852 10.6305 11.7209 6.99787 15.0316C3.36519 18.3424 1.09914 22.8898 0.643372 27.7836C1.2547 33.162 3.68461 38.1704 7.53081 41.9795C11.9078 46.4204 17.8685 48.9426 24.1037 48.9923C28.5878 48.1073 32.6255 45.6929 35.5271 42.1617C38.4287 38.6304 40.0143 34.2014 40.013 29.6309Z" fill="#FFCB4A"/>
</svg>
